<!DOCTYPE svg PUBLIC "-//W3C//DTD SVG 1.1//EN" "http://www.w3.org/Graphics/SVG/1.1/DTD/svg11.dtd"><svg style="display: none;" aria-hidden="true" xmlns="http://www.w3.org/2000/svg" xmlns:xlink="http://www.w3.org/1999/xlink"><symbol viewBox="0 0 400 400" id="svg-loon"><path transform="matrix(.39 0 0 .39 100.16 100.156)" d="M 199 387 h -62.218 h 0 c -0.221 0 0.221 0 0 0 C 91.805 387 56 350.337 56 305.36 c 0 -44.977 36.456 -81.537 81.433 -81.537 c 3.922 0 7.778 0.222 11.557 0.769 c 13.941 -56.938 65.316 -99.218 126.554 -99.218 c 71.961 0 130.293 58.319 130.293 130.28 c 0 10.593 -1.264 20.879 -3.661 30.743 c 1.212 -0.091 2.423 -0.03 3.661 -0.03 c 27.7 0 50.163 22.563 50.163 50.263 S 433.537 387 405.837 387 H 338" stroke="#000" stroke-width="30" stroke-miterlimit="10" fill="none"/><path stroke="#000" stroke-width="4" stroke-linecap="round" stroke-miterlimit="10" d="M19.24 -107.89L-51.79 -7.27 7.4 19.36 -31.07 107.89 51.79 10.48 -10.36 -25.03z" transform="matrix(.39 0 0 .39 204.48 247.88)"/><path stroke="#000" stroke-width="30" stroke-miterlimit="10" fill="none" d="M14.276 -24.053L-14.276 24.053" transform="matrix(.39 0 0 .39 174.5 277.03)"/></symbol><symbol viewBox="0 0 400 400" id="svg-loon-icon_(2)"><path transform="matrix(4.17 0 0 4.17 99.93 99.92)" d="M 22 41 c -5.5 0 -10 -4.5 -10 -10 h 4 c 0 3.3 2.7 6 6 6 s 6 -2.7 6 -6 V 9 h 4 v 22 C 32 36.5 27.5 41 22 41 z" fill="#b522b4"/><rect x="-6" y="-2" rx="0" ry="0" width="12" height="4" fill="#b522b4" transform="matrix(4.17 0 0 4.17 225 137.5)"/></symbol><symbol viewBox="0 0 400 400" id="svg-loon-icon_(3)"><path transform="matrix(4.17 0 0 4.17 99.959 99.9)" d="M 22.320313 15.234375 C 22.320313 15.234375 20.355469 14 18.0625 14 C 15.773438 14 13.804688 15.234375 13.804688 15.234375 C 11.558594 16.652344 10.0625 19.148438 10.0625 22 L 12.480469 23 L 14.0625 46 L 22.0625 46 L 23.6875 23 L 26.546875 21.152344 C 25.414063 18.738281 24.425781 16.375 22.320313 15.234375 Z" fill="#546e7a"/><path transform="matrix(4.17 0 0 4.17 99.959 99.897)" d="M 21.054688 14.5 L 15.117188 14.5 C 11.441406 15.859375 10.0625 19.6875 10.0625 22 L 12.480469 23 L 14.0625 46 L 22.0625 46 L 23.6875 23 L 26.546875 21.152344 C 25.636719 19.214844 24.519531 15.777344 21.054688 14.5 Z" fill="#546e7a"/><path transform="matrix(4.17 0 0 4.17 99.955 99.94)" d="M 18.0625 22 L 21.085938 14.507813 C 21.085938 14.507813 20.046875 14 18.0625 14 C 16.078125 14 15.101563 14.507813 15.101563 14.507813 Z" fill="#e3f2fd"/><path transform="matrix(4.17 0 0 4.17 99.95 99.955)" d="M 20.0625 11 L 16.0625 11 L 16.0625 14 C 16.0625 14 15.941406 16 18.023438 16 C 20.105469 16 20.0625 14 20.0625 14 Z" fill="#ff9800"/><path transform="matrix(4.17 0 0 4.17 99.89 99.942)" d="M 32.0625 19.09375 L 31.0625 18.566406 L 27.136719 22.34375 L 26.546875 21.152344 L 23.6875 23 L 26.0625 26 L 28.0625 26 L 32.0625 21.070313 Z" fill="#ffb74d"/><path transform="matrix(4.17 0 0 4.17 99.975 99.91)" d="M 10.0625 22 L 10.0625 30 L 13.0625 32 L 12.480469 23 Z" fill="#ffb74d"/><path transform="matrix(4.17 0 0 4.17 99.95 99.99)" d="M 18.0625 13.003906 C 15.304688 13.003906 13.0625 10.761719 13.0625 8.003906 C 13.0625 5.246094 15.304688 3.003906 18.0625 3.003906 C 20.820313 3.003906 23.0625 5.246094 23.0625 8.003906 C 23.0625 10.761719 20.820313 13.003906 18.0625 13.003906" fill="#ffb74d"/><path transform="matrix(4.17 0 0 4.17 99.928 100)" d="M 17.847656 1.003906 C 15.40625 1.222656 13.066406 2.933594 13.066406 6.578125 L 13.066406 8.003906 L 14.066406 9.003906 L 14.066406 6.003906 L 20.375 3.804688 L 22.066406 6.003906 L 22.066406 9.003906 L 23.066406 8.003906 L 23.066406 6.800781 C 23.066406 4.386719 22.929688 2.597656 20.066406 2.003906 L 19.578125 1.003906 Z" fill="#424242"/><path transform="matrix(4.17 0 0 4.17 99.9 99.925)" d="M 31.0625 9 L 33.0625 9 L 33.0625 36 L 31.0625 36 Z" fill="#3f51b5"/><path transform="matrix(4.17 0 0 4.17 99.9 99.865)" d="M 33.0625 35 L 31.0625 35 C 31.0625 35 27.0625 40 27.0625 46 L 37.0625 46 C 37.0625 40 33.0625 35 33.0625 35 Z" fill="#ffc107"/></symbol><symbol viewBox="0 0 400 400" id="svg-sun"><path transform="matrix(.77 0 0 .77 2.88 2.872)" d="M 386 248.478 c 0 78.864 -63.941 142.805 -142.805 142.805 c -48.513 0 -91.395 -24.202 -117.195 -61.194 c 14.54 4.687 30.037 7.215 46.135 7.215 c 83.018 0 150.321 -67.303 150.321 -150.321 c 0 -23.778 -5.521 -46.258 -15.346 -66.237 C 353.886 144.197 386 192.587 386 248.478 z" stroke-linecap="round" stroke="#000" stroke-width="30" stroke-miterlimit="10" fill="none"/></symbol></svg>